<svg width="161" height="45" viewBox="0 0 161 45" fill="none" xmlns="http://www.w3.org/2000/svg">
<path d="M121 39.9002H122.1V45.0002H125.1V42.8002H125.6V45.0002H129.2V39.9002H130.3V45.0002H133.3V42.8002H133.8V45.0002H137.4V39.9002H138.5V45.0002H141.5V42.8002H142.1V45.0002H145.7V39.9002H146.8V45.0002H149.8V42.8002H150.3V45.0002H153.9V39.9002H155V45.0002H158V42.8002H158.5V45.0002H161V32.2002H0V45.0002H1.6V42.8002H2.1V45.0002H5.7V39.9002H6.8V45.0002H9.8V42.8002H10.3V45.0002H13.8V42.8002H13.9V39.9002H15V45.0002H18V42.8002H18.6V45.0002H22.2V39.9002H23.2V45.0002H26.3V42.8002H26.8V45.0002H30.4V39.9002H31.5V45.0002H34.5V42.8002H35V45.0002H38.6V39.9002H39.7V45.0002H42.7V42.8002H43.3V45.0002H46.9V39.9002H48V45.0002H51V42.8002H51.5V45.0002H55.1V39.9002H56.2V45.0002H59.2V42.8002H59.7V45.0002H63.3V39.9002H64.4V45.0002H67.4V42.8002H68V45.0002H71.6V39.9002H72.7V45.0002H75.7V42.8002H76.2V45.0002H79.8V39.9002H80.9V45.0002H83.9V42.8002H84.4V45.0002H88V39.9002H89.1V45.0002H92.1V42.8002H92.7V45.0002H96.3V39.9002H97.4V45.0002H100.4V42.8002H100.9V45.0002H104.5V39.9002H105.6V45.0002H108.6V42.8002H109.1V45.0002H112.7V39.9002H113.8V45.0002H116.6V42.8002H117.1V45.0002H121V39.9002V39.9002Z" fill="#DBE6F1"/>
<path d="M28.9001 32.1999H25.4001L24.6001 28.4999C21.7001 31.7999 19.0001 32.8999 15.1001 32.8999C5.7001 32.8999 0.100098 25.3999 0.100098 16.3999C0.100098 7.3999 5.7001 -0.100098 15.1001 -0.100098C22.0001 -9.76548e-05 27.8001 3.6999 28.6001 10.6999H23.2001C22.7001 6.5999 19.1001 4.3999 15.1001 4.3999C8.4001 4.3999 5.6001 10.2999 5.6001 16.3999C5.6001 22.3999 8.4001 28.3999 15.1001 28.3999C20.7001 28.4999 23.8001 25.0999 23.9001 19.7999H15.5001V15.5999H28.9001V32.1999V32.1999ZM28.2001 0.699902H53.6001V5.4999H43.6001V32.1999H38.1001V5.4999H28.2001V0.699902V0.699902Z" fill="#4598D3"/>
<path d="M48.8999 9.3998H53.6999V12.5998H53.7999C55.2999 10.3998 57.1999 8.7998 60.7999 8.7998C63.5999 8.7998 66.1999 9.9998 67.1999 12.5998C68.8999 10.2998 70.9999 8.7998 74.2999 8.7998C79.0999 8.7998 81.8999 10.8998 81.8999 16.4998V32.1998H76.8999V18.8998C76.8999 15.2998 76.6999 12.7998 72.7999 12.7998C69.3999 12.7998 67.9999 14.9998 67.9999 18.8998V32.1998H62.9999V17.5998C62.9999 14.4998 61.9999 12.7998 58.9999 12.7998C56.3999 12.7998 53.9999 14.8998 53.9999 18.6998V32.1998H48.9999V9.3998H48.8999ZM87.8999 22.0998C87.8999 25.6998 89.7999 28.7998 93.9999 28.7998C96.8999 28.7998 98.6999 27.4998 99.4999 24.9998H104.3C103.2 29.9998 98.9999 32.7998 93.9999 32.7998C86.8999 32.7998 82.8999 27.7998 82.8999 20.7998C82.8999 14.2998 87.0999 8.7998 93.8999 8.7998C101.1 8.7998 105.5 15.2998 104.6 22.0998H87.8999V22.0998ZM99.5999 18.7998C99.3999 15.5998 97.2999 12.7998 93.8999 12.7998C90.3999 12.7998 87.9999 15.3998 87.8999 18.7998H99.5999Z" fill="#84B0DE"/>
<path d="M103 9.4001H106.8V2.6001H111.8V9.4001H116.3V13.1001H111.8V25.3001C111.8 27.4001 112 28.4001 114.2 28.4001C114.9 28.4001 115.6 28.4001 116.3 28.2001V32.1001C115.2 32.2001 114.1 32.4001 113 32.4001C107.8 32.4001 106.8 30.4001 106.7 26.6001V13.2001H103V9.4001ZM117.3 9.4001H122V13.8001H122.1C122.7 11.4001 125.7 9.8001 128.7 9.8001C129.8 9.8001 130.2 9.9001 130.6 9.9001V13.7001C129.9 13.6001 129.1 13.5001 128.4 13.5001C125 13.5001 122.2 16.3001 122.2 21.3001V32.1001H117.2V9.4001H117.3Z" fill="#84B0DE"/>
<path d="M131.8 0.700195H136.8V5.5002H131.8V0.700195ZM131.8 9.4002H136.8V32.2002H131.8V9.4002V9.4002ZM146.3 20.2002L138.4 9.4002H144.5L149.3 16.4002L154.3 9.4002H160.1L152.2 20.0002L160.9 32.2002H154.9L149.1 23.8002L143.5 32.2002H137.6L146.3 20.2002V20.2002Z" fill="#84B0DE"/>
</svg>
